<svg xmlns="http://www.w3.org/2000/svg" width="155" height="33.4" viewBox="0 0 155 33.4">
  <g id="Group_46" data-name="Group 46" transform="translate(-709 -1825.6)">
    <path id="Path_69" data-name="Path 69" d="M2.075,0V-17.325H13.2v2.675H5.225v4.275h7.1V-7.75h-7.1v5.075H13.8V0Zm19.4-8.8,2.775-4.275h3.175L23.125-6.9q1.35,1.75,2.588,3.537A29.226,29.226,0,0,1,27.75,0H24.475q-.225-.475-.587-1.087t-.775-1.275q-.412-.663-.862-1.312T21.375-4.9a27.541,27.541,0,0,0-1.712,2.487Q18.825-1.05,18.275,0h-3.1q.375-.75.9-1.6T17.2-3.337q.6-.888,1.237-1.775T19.7-6.8l-4.325-6.275H18.7Zm17.2,2.325a4.874,4.874,0,0,0-.912-3.15,3.565,3.565,0,0,0-2.937-1.125q-.425,0-.888.038a4.874,4.874,0,0,0-.912.162v7.475a4.685,4.685,0,0,0,1.063.513,4.154,4.154,0,0,0,1.412.237A2.706,2.706,0,0,0,37.912-3.45,5.314,5.314,0,0,0,38.675-6.475Zm3.1-.05a9.254,9.254,0,0,1-.388,2.75,6.413,6.413,0,0,1-1.112,2.15,4.94,4.94,0,0,1-1.812,1.4A5.83,5.83,0,0,1,36,.275,6.08,6.08,0,0,1,34.3.05a6.352,6.352,0,0,1-1.275-.5V4.625H30V-12.65q.925-.25,2.275-.475a17.328,17.328,0,0,1,2.85-.225,7.629,7.629,0,0,1,2.775.475,5.783,5.783,0,0,1,2.088,1.363,6,6,0,0,1,1.325,2.15A8.205,8.205,0,0,1,41.775-6.525ZM49.45.25a8.206,8.206,0,0,1-2.237-.3A3.441,3.441,0,0,1,45.8-.838a2.79,2.79,0,0,1-.737-1.275A6.483,6.483,0,0,1,44.85-3.85V-18.9l3.025-.5V-4.425a4.147,4.147,0,0,0,.087.925,1.477,1.477,0,0,0,.313.638,1.4,1.4,0,0,0,.612.4,4.79,4.79,0,0,0,.988.212Zm14.7-6.8a8.441,8.441,0,0,1-.45,2.825A6.253,6.253,0,0,1,62.425-1.55a5.733,5.733,0,0,1-1.988,1.4,6.419,6.419,0,0,1-2.562.5,6.329,6.329,0,0,1-2.55-.5,5.762,5.762,0,0,1-1.975-1.4,6.409,6.409,0,0,1-1.288-2.175A8.234,8.234,0,0,1,51.6-6.55a8.128,8.128,0,0,1,.462-2.813,6.324,6.324,0,0,1,1.3-2.162,5.745,5.745,0,0,1,1.987-1.388,6.4,6.4,0,0,1,2.525-.488,6.5,6.5,0,0,1,2.538.488A5.594,5.594,0,0,1,62.4-11.525a6.431,6.431,0,0,1,1.287,2.162A8.127,8.127,0,0,1,64.15-6.55Zm-3.1,0a5.1,5.1,0,0,0-.838-3.088,2.737,2.737,0,0,0-2.338-1.137,2.737,2.737,0,0,0-2.337,1.137A5.1,5.1,0,0,0,54.7-6.55a5.207,5.207,0,0,0,.838,3.125,2.727,2.727,0,0,0,2.337,1.15,2.727,2.727,0,0,0,2.338-1.15A5.207,5.207,0,0,0,61.05-6.55Zm13.675-3.8a9.643,9.643,0,0,0-1.037-.262,7.631,7.631,0,0,0-1.537-.138,6.082,6.082,0,0,0-1.062.1,6.386,6.386,0,0,0-.788.175V0H67.275V-12.45a16.629,16.629,0,0,1,2.188-.612,13.637,13.637,0,0,1,2.912-.288q.3,0,.7.037t.8.1q.4.063.775.15t.6.162Zm1.9,3.875A8.215,8.215,0,0,1,77.138-9.5,6.353,6.353,0,0,1,78.5-11.663a5.64,5.64,0,0,1,1.95-1.3A6.038,6.038,0,0,1,82.7-13.4a5.386,5.386,0,0,1,4.213,1.675,7.248,7.248,0,0,1,1.512,5q0,.25-.012.563t-.038.562H79.75a3.448,3.448,0,0,0,1.113,2.438,4.227,4.227,0,0,0,2.863.862,9.411,9.411,0,0,0,2.012-.2,8.288,8.288,0,0,0,1.438-.425l.4,2.475a4.839,4.839,0,0,1-.687.262,9.711,9.711,0,0,1-1,.25q-.562.113-1.213.188A11.552,11.552,0,0,1,83.35.325a8.018,8.018,0,0,1-3-.513,5.586,5.586,0,0,1-2.1-1.425,5.84,5.84,0,0,1-1.225-2.15A8.779,8.779,0,0,1,76.625-6.475ZM85.4-7.825a3.975,3.975,0,0,0-.175-1.187,2.865,2.865,0,0,0-.513-.975,2.424,2.424,0,0,0-.825-.65,2.63,2.63,0,0,0-1.162-.238,2.706,2.706,0,0,0-1.225.263,2.792,2.792,0,0,0-.887.687,3.142,3.142,0,0,0-.562.975,5.282,5.282,0,0,0-.275,1.125Z" transform="translate(720 1845)" fill="#00d8ff"/>
    <g id="Group_28" data-name="Group 28" transform="translate(699 1511)">
      <line id="Line_4" data-name="Line 4" x2="145" transform="translate(10 343.5)" fill="none" stroke="#00d8ff" stroke-width="1"/>
      <g id="Ellipse_25" data-name="Ellipse 25" transform="translate(155 338)" fill="none" stroke="#00d8ff" stroke-width="1">
        <circle cx="5" cy="5" r="5" stroke="none"/>
        <circle cx="5" cy="5" r="4.5" fill="none"/>
      </g>
    </g>
  </g>
</svg>
