<svg xmlns="http://www.w3.org/2000/svg" width="295" height="33.4" viewBox="0 0 295 33.4">
  <g id="Group_45" data-name="Group 45" transform="translate(-62 -1306.6)">
    <path id="Path_67" data-name="Path 67" d="M9.375-10.35a9.643,9.643,0,0,0-1.038-.262A7.631,7.631,0,0,0,6.8-10.75a6.082,6.082,0,0,0-1.063.1,6.386,6.386,0,0,0-.787.175V0H1.925V-12.45a16.629,16.629,0,0,1,2.188-.612,13.637,13.637,0,0,1,2.912-.288q.3,0,.7.037t.8.1q.4.063.775.15t.6.162Zm14.45,3.8a8.441,8.441,0,0,1-.45,2.825A6.253,6.253,0,0,1,22.1-1.55a5.733,5.733,0,0,1-1.988,1.4,6.419,6.419,0,0,1-2.562.5A6.329,6.329,0,0,1,15-.15a5.762,5.762,0,0,1-1.975-1.4,6.409,6.409,0,0,1-1.287-2.175,8.234,8.234,0,0,1-.463-2.825,8.127,8.127,0,0,1,.463-2.813,6.324,6.324,0,0,1,1.3-2.162,5.745,5.745,0,0,1,1.987-1.388A6.4,6.4,0,0,1,17.55-13.4a6.5,6.5,0,0,1,2.538.488,5.594,5.594,0,0,1,1.988,1.388,6.431,6.431,0,0,1,1.287,2.162A8.127,8.127,0,0,1,23.825-6.55Zm-3.1,0a5.1,5.1,0,0,0-.837-3.088,2.737,2.737,0,0,0-2.338-1.137,2.737,2.737,0,0,0-2.337,1.137,5.1,5.1,0,0,0-.837,3.088,5.207,5.207,0,0,0,.837,3.125,2.727,2.727,0,0,0,2.337,1.15,2.727,2.727,0,0,0,2.338-1.15A5.207,5.207,0,0,0,20.725-6.55Zm8.6-.025a4.75,4.75,0,0,0,.95,3.138A3.235,3.235,0,0,0,32.9-2.3a10.43,10.43,0,0,0,1.237-.062,8.339,8.339,0,0,0,.838-.138V-10a4.685,4.685,0,0,0-1.062-.512A4.154,4.154,0,0,0,32.5-10.75a2.706,2.706,0,0,0-2.413,1.125A5.364,5.364,0,0,0,29.325-6.575ZM38-.4a17.918,17.918,0,0,1-2.263.5,17.557,17.557,0,0,1-2.862.225A7.629,7.629,0,0,1,30.1-.15a5.783,5.783,0,0,1-2.087-1.363,6,6,0,0,1-1.325-2.15A8.205,8.205,0,0,1,26.225-6.5a9.562,9.562,0,0,1,.387-2.812,6.153,6.153,0,0,1,1.138-2.162,5.07,5.07,0,0,1,1.825-1.388,5.936,5.936,0,0,1,2.475-.487,5.659,5.659,0,0,1,1.675.225,7.494,7.494,0,0,1,1.25.5V-18.9L38-19.4ZM57.425-.875a4.249,4.249,0,0,1-1.375-.212A2.543,2.543,0,0,1,55-1.75a3.9,3.9,0,0,1-1.287.6,5.849,5.849,0,0,1-1.538.2,6.4,6.4,0,0,1-2.237-.375,4.72,4.72,0,0,1-1.75-1.125A5.048,5.048,0,0,1,47.05-4.312a7.637,7.637,0,0,1-.4-2.587,6.646,6.646,0,0,1,.4-2.312A5.4,5.4,0,0,1,48.212-11.1a5.43,5.43,0,0,1,1.875-1.262,6.561,6.561,0,0,1,2.537-.463A12.4,12.4,0,0,1,55.1-12.6a11.435,11.435,0,0,1,1.75.475v7.75a1.358,1.358,0,0,0,.263.963.963.963,0,0,0,.712.262,1.886,1.886,0,0,0,1.688-1.338,9.508,9.508,0,0,0,.613-3.837,7.671,7.671,0,0,0-.538-2.888,6.493,6.493,0,0,0-1.562-2.312,7.428,7.428,0,0,0-2.487-1.538,9.1,9.1,0,0,0-3.287-.562,8.9,8.9,0,0,0-3.312.6,7.322,7.322,0,0,0-2.6,1.725,7.914,7.914,0,0,0-1.7,2.75,10.362,10.362,0,0,0-.613,3.675,10.379,10.379,0,0,0,.625,3.763A7.226,7.226,0,0,0,46.412-.425,7.469,7.469,0,0,0,49.137,1.2a10.755,10.755,0,0,0,3.538.55,15.578,15.578,0,0,0,2.388-.162Q56.1,1.425,56.625,1.3l.3,2.1q-.275.075-.712.175t-1,.187q-.563.087-1.213.15t-1.325.063a14.8,14.8,0,0,1-4.362-.625,9.575,9.575,0,0,1-3.55-1.95,9.335,9.335,0,0,1-2.4-3.375,12.284,12.284,0,0,1-.888-4.9,11.881,11.881,0,0,1,.9-4.788,9.9,9.9,0,0,1,2.4-3.425,10.065,10.065,0,0,1,3.437-2.05,11.984,11.984,0,0,1,4.038-.687,12.506,12.506,0,0,1,4.075.65,9.622,9.622,0,0,1,3.3,1.887,8.859,8.859,0,0,1,2.213,3.038,9.865,9.865,0,0,1,.813,4.1,11.364,11.364,0,0,1-.388,3.125A6.875,6.875,0,0,1,61.175-2.75a4.7,4.7,0,0,1-1.65,1.4A4.629,4.629,0,0,1,57.425-.875ZM54.2-3.6q-.05-.275-.087-.625a6.339,6.339,0,0,1-.038-.675v-5.5a5.521,5.521,0,0,0-1.3-.125,3.551,3.551,0,0,0-1.463.275,2.736,2.736,0,0,0-1.013.762,3.133,3.133,0,0,0-.587,1.15A5.262,5.262,0,0,0,49.525-6.9,4.637,4.637,0,0,0,50.2-4.3a2.336,2.336,0,0,0,2.1,1.025,7.377,7.377,0,0,0,.938-.062A3.677,3.677,0,0,0,54.2-3.6ZM71.5-19.4a7.421,7.421,0,0,1,1.612.15,7.194,7.194,0,0,1,1.037.3l-.475,2.45a6.26,6.26,0,0,0-.838-.225,5.291,5.291,0,0,0-1.062-.1,2.356,2.356,0,0,0-2.062.8,3.53,3.53,0,0,0-.562,2.075v.875h4.8v2.525h-4.8V0H66.125V-14a5.614,5.614,0,0,1,1.325-3.975A5.276,5.276,0,0,1,71.5-19.4ZM80.825.25a8.206,8.206,0,0,1-2.238-.3,3.441,3.441,0,0,1-1.412-.788,2.79,2.79,0,0,1-.737-1.275,6.483,6.483,0,0,1-.213-1.737V-18.9l3.025-.5V-4.425a4.147,4.147,0,0,0,.087.925,1.477,1.477,0,0,0,.313.638,1.4,1.4,0,0,0,.613.4,4.79,4.79,0,0,0,.988.212Zm14.7-6.8a8.441,8.441,0,0,1-.45,2.825A6.253,6.253,0,0,1,93.8-1.55a5.733,5.733,0,0,1-1.988,1.4,6.419,6.419,0,0,1-2.562.5,6.329,6.329,0,0,1-2.55-.5,5.762,5.762,0,0,1-1.975-1.4,6.409,6.409,0,0,1-1.287-2.175,8.234,8.234,0,0,1-.463-2.825,8.127,8.127,0,0,1,.463-2.813,6.324,6.324,0,0,1,1.3-2.162,5.745,5.745,0,0,1,1.987-1.388A6.4,6.4,0,0,1,89.25-13.4a6.5,6.5,0,0,1,2.537.488,5.594,5.594,0,0,1,1.988,1.388,6.431,6.431,0,0,1,1.287,2.162A8.127,8.127,0,0,1,95.525-6.55Zm-3.1,0a5.1,5.1,0,0,0-.838-3.088,2.737,2.737,0,0,0-2.338-1.137,2.737,2.737,0,0,0-2.338,1.137,5.1,5.1,0,0,0-.837,3.088,5.207,5.207,0,0,0,.837,3.125,2.727,2.727,0,0,0,2.338,1.15,2.727,2.727,0,0,0,2.338-1.15A5.207,5.207,0,0,0,92.425-6.55Zm13.75-1.675q-.575,2.2-1.237,4.288T103.625,0H101.15q-.5-1.15-1.05-2.625T99-5.775Q98.45-7.45,97.9-9.3t-1.075-3.775h3.2q.225,1.05.525,2.262t.625,2.475q.325,1.263.675,2.462t.7,2.2q.375-1.15.738-2.375t.688-2.45q.325-1.225.612-2.387t.513-2.187h2.325q.225,1.025.5,2.188t.588,2.387q.313,1.225.675,2.45t.737,2.375q.325-1,.675-2.2t.688-2.462q.337-1.263.637-2.475t.525-2.262h3.125Q115.05-11.15,114.5-9.3t-1.1,3.525q-.55,1.675-1.1,3.15T111.225,0h-2.45q-.65-1.85-1.337-3.937T106.175-8.225Zm10.7,1.7a8.02,8.02,0,0,1,.45-2.713,6.438,6.438,0,0,1,1.287-2.187,5.9,5.9,0,0,1,2.037-1.45,6.67,6.67,0,0,1,2.7-.525,9.154,9.154,0,0,1,3.5.675l-.65,2.475a6.867,6.867,0,0,0-1.187-.375,6.385,6.385,0,0,0-1.412-.15,3.311,3.311,0,0,0-2.7,1.112,4.776,4.776,0,0,0-.925,3.138,4.942,4.942,0,0,0,.875,3.088A3.5,3.5,0,0,0,123.8-2.3a7.757,7.757,0,0,0,1.525-.15,7.166,7.166,0,0,0,1.3-.375l.425,2.5a6.294,6.294,0,0,1-1.512.45,10.748,10.748,0,0,1-2.088.2,7.58,7.58,0,0,1-2.912-.513,5.526,5.526,0,0,1-2.05-1.425,5.906,5.906,0,0,1-1.213-2.175A9.019,9.019,0,0,1,116.875-6.525Zm11.8.05a8.216,8.216,0,0,1,.512-3.025,6.353,6.353,0,0,1,1.363-2.163,5.64,5.64,0,0,1,1.95-1.3,6.039,6.039,0,0,1,2.25-.438,5.386,5.386,0,0,1,4.212,1.675,7.248,7.248,0,0,1,1.513,5q0,.25-.013.563t-.037.562H131.8a3.448,3.448,0,0,0,1.113,2.438,4.227,4.227,0,0,0,2.862.862,9.411,9.411,0,0,0,2.013-.2,8.288,8.288,0,0,0,1.438-.425l.4,2.475a4.839,4.839,0,0,1-.687.262,9.712,9.712,0,0,1-1,.25q-.562.113-1.212.188A11.552,11.552,0,0,1,135.4.325a8.018,8.018,0,0,1-3-.513,5.586,5.586,0,0,1-2.1-1.425,5.84,5.84,0,0,1-1.225-2.15A8.779,8.779,0,0,1,128.675-6.475Zm8.775-1.35a3.975,3.975,0,0,0-.175-1.187,2.864,2.864,0,0,0-.512-.975,2.424,2.424,0,0,0-.825-.65,2.63,2.63,0,0,0-1.163-.238,2.706,2.706,0,0,0-1.225.263,2.792,2.792,0,0,0-.887.687,3.142,3.142,0,0,0-.562.975,5.281,5.281,0,0,0-.275,1.125Zm14.9,1.35a4.874,4.874,0,0,0-.913-3.15A3.565,3.565,0,0,0,148.5-10.75q-.425,0-.887.038a4.874,4.874,0,0,0-.913.162v7.475a4.685,4.685,0,0,0,1.063.513,4.154,4.154,0,0,0,1.413.237,2.706,2.706,0,0,0,2.412-1.125A5.314,5.314,0,0,0,152.35-6.475Zm3.1-.05a9.254,9.254,0,0,1-.387,2.75,6.412,6.412,0,0,1-1.113,2.15,4.94,4.94,0,0,1-1.812,1.4,5.83,5.83,0,0,1-2.462.5,6.08,6.08,0,0,1-1.7-.225,6.352,6.352,0,0,1-1.275-.5V4.625h-3.025V-12.65q.925-.25,2.275-.475a17.328,17.328,0,0,1,2.85-.225,7.629,7.629,0,0,1,2.775.475,5.783,5.783,0,0,1,2.088,1.363,6,6,0,0,1,1.325,2.15A8.205,8.205,0,0,1,155.45-6.525Zm2.975-10,3.025-.5v3.95h4.65v2.525h-4.65v5.325a3.869,3.869,0,0,0,.5,2.25,1.979,1.979,0,0,0,1.7.675,5.541,5.541,0,0,0,1.462-.175,9.881,9.881,0,0,0,1.013-.325l.5,2.4a11.346,11.346,0,0,1-1.375.463,7.479,7.479,0,0,1-2,.238,6.33,6.33,0,0,1-2.338-.375,3.447,3.447,0,0,1-1.488-1.088,4.311,4.311,0,0,1-.775-1.725,10.716,10.716,0,0,1-.225-2.313ZM172.075,0H169.05V-13.075h3.025Zm.325-16.9a1.734,1.734,0,0,1-.55,1.35,1.869,1.869,0,0,1-1.3.5,1.9,1.9,0,0,1-1.325-.5,1.734,1.734,0,0,1-.55-1.35,1.765,1.765,0,0,1,.55-1.375,1.9,1.9,0,0,1,1.325-.5,1.869,1.869,0,0,1,1.3.5A1.765,1.765,0,0,1,172.4-16.9ZM187.75-6.55a8.441,8.441,0,0,1-.45,2.825,6.253,6.253,0,0,1-1.275,2.175,5.733,5.733,0,0,1-1.987,1.4,6.419,6.419,0,0,1-2.562.5,6.329,6.329,0,0,1-2.55-.5,5.762,5.762,0,0,1-1.975-1.4,6.409,6.409,0,0,1-1.287-2.175A8.234,8.234,0,0,1,175.2-6.55a8.127,8.127,0,0,1,.463-2.813,6.324,6.324,0,0,1,1.3-2.162,5.745,5.745,0,0,1,1.988-1.388,6.4,6.4,0,0,1,2.525-.488,6.5,6.5,0,0,1,2.537.488A5.594,5.594,0,0,1,186-11.525a6.432,6.432,0,0,1,1.288,2.162A8.127,8.127,0,0,1,187.75-6.55Zm-3.1,0a5.1,5.1,0,0,0-.837-3.088,2.737,2.737,0,0,0-2.337-1.137,2.737,2.737,0,0,0-2.338,1.137A5.1,5.1,0,0,0,178.3-6.55a5.207,5.207,0,0,0,.837,3.125,2.727,2.727,0,0,0,2.338,1.15,2.727,2.727,0,0,0,2.337-1.15A5.207,5.207,0,0,0,184.65-6.55Zm6.225-6.1a20.265,20.265,0,0,1,2.275-.475,19.616,19.616,0,0,1,3.1-.225,7.129,7.129,0,0,1,2.675.437,4.173,4.173,0,0,1,1.712,1.225,4.678,4.678,0,0,1,.9,1.9A10.612,10.612,0,0,1,201.8-7.35V0h-3.025V-6.875a9.928,9.928,0,0,0-.137-1.788,3.168,3.168,0,0,0-.45-1.2,1.8,1.8,0,0,0-.85-.675,3.579,3.579,0,0,0-1.312-.212,10.08,10.08,0,0,0-1.2.075q-.625.075-.925.125V0h-3.025Zm18.025,11a1.863,1.863,0,0,1-.587,1.425,1.994,1.994,0,0,1-1.413.55,1.982,1.982,0,0,1-1.425-.55A1.883,1.883,0,0,1,204.9-1.65a1.924,1.924,0,0,1,.575-1.437A1.958,1.958,0,0,1,206.9-3.65a1.97,1.97,0,0,1,1.413.563A1.9,1.9,0,0,1,208.9-1.65ZM215.2,0h-3.025V-13.075H215.2Zm.325-16.9a1.734,1.734,0,0,1-.55,1.35,1.869,1.869,0,0,1-1.3.5,1.9,1.9,0,0,1-1.325-.5,1.734,1.734,0,0,1-.55-1.35,1.765,1.765,0,0,1,.55-1.375,1.9,1.9,0,0,1,1.325-.5,1.869,1.869,0,0,1,1.3.5A1.765,1.765,0,0,1,215.525-16.9Zm15.35,10.35a8.441,8.441,0,0,1-.45,2.825A6.253,6.253,0,0,1,229.15-1.55a5.733,5.733,0,0,1-1.987,1.4,6.419,6.419,0,0,1-2.562.5,6.329,6.329,0,0,1-2.55-.5,5.762,5.762,0,0,1-1.975-1.4,6.409,6.409,0,0,1-1.287-2.175,8.234,8.234,0,0,1-.463-2.825,8.127,8.127,0,0,1,.463-2.813,6.324,6.324,0,0,1,1.3-2.162,5.745,5.745,0,0,1,1.988-1.388A6.4,6.4,0,0,1,224.6-13.4a6.5,6.5,0,0,1,2.537.488,5.594,5.594,0,0,1,1.988,1.388,6.432,6.432,0,0,1,1.288,2.162A8.127,8.127,0,0,1,230.875-6.55Zm-3.1,0a5.1,5.1,0,0,0-.837-3.088,2.737,2.737,0,0,0-2.337-1.137,2.737,2.737,0,0,0-2.338,1.137,5.1,5.1,0,0,0-.837,3.088,5.207,5.207,0,0,0,.837,3.125,2.727,2.727,0,0,0,2.338,1.15,2.727,2.727,0,0,0,2.337-1.15A5.207,5.207,0,0,0,227.775-6.55Z" transform="translate(73 1326)" fill="#00d8ff"/>
    <g id="Group_44" data-name="Group 44" transform="translate(52 992)">
      <line id="Line_4" data-name="Line 4" x2="284.906" transform="translate(10 343.701)" fill="none" stroke="#00d8ff" stroke-width="1"/>
      <g id="Ellipse_25" data-name="Ellipse 25" transform="translate(295 338)" fill="none" stroke="#00d8ff" stroke-width="1">
        <circle cx="5" cy="5" r="5" stroke="none"/>
        <circle cx="5" cy="5" r="4.5" fill="none"/>
      </g>
    </g>
  </g>
</svg>
