<svg xmlns="http://www.w3.org/2000/svg" width="155" height="33.4" viewBox="0 0 155 33.4">
  <g id="Group_41" data-name="Group 41" transform="translate(-8403 -1184.6)">
    <path id="Path_68" data-name="Path 68" d="M10.175-14.95a5.066,5.066,0,0,0-4.088,1.663A6.906,6.906,0,0,0,4.675-8.675a9.169,9.169,0,0,0,.337,2.563,5.648,5.648,0,0,0,1,1.987,4.569,4.569,0,0,0,1.65,1.287,5.4,5.4,0,0,0,2.312.463A13.994,13.994,0,0,0,11.4-2.437a5.79,5.79,0,0,0,.95-.163V-8.825H15.5V-.5a14.591,14.591,0,0,1-2.2.55,18.97,18.97,0,0,1-3.575.3A9.414,9.414,0,0,1,6.3-.25,7.1,7.1,0,0,1,3.663-2,7.951,7.951,0,0,1,1.975-4.825a11.387,11.387,0,0,1-.6-3.85,10.412,10.412,0,0,1,.663-3.85A8.335,8.335,0,0,1,3.85-15.362a7.623,7.623,0,0,1,2.7-1.763,9.061,9.061,0,0,1,3.3-.6,12.609,12.609,0,0,1,2.138.163A14.435,14.435,0,0,1,13.6-17.2a6.521,6.521,0,0,1,1.113.425q.438.225.612.325l-.95,2.575a7.649,7.649,0,0,0-1.862-.762A8.6,8.6,0,0,0,10.175-14.95ZM22.05,0H19.025V-13.075H22.05Zm.325-16.9a1.734,1.734,0,0,1-.55,1.35,1.869,1.869,0,0,1-1.3.5,1.9,1.9,0,0,1-1.325-.5,1.734,1.734,0,0,1-.55-1.35,1.765,1.765,0,0,1,.55-1.375,1.9,1.9,0,0,1,1.325-.5,1.869,1.869,0,0,1,1.3.5A1.765,1.765,0,0,1,22.375-16.9Zm3.375.375,3.025-.5v3.95h4.65v2.525h-4.65v5.325a3.869,3.869,0,0,0,.5,2.25,1.979,1.979,0,0,0,1.7.675,5.541,5.541,0,0,0,1.462-.175A9.881,9.881,0,0,0,33.45-2.8l.5,2.4a11.346,11.346,0,0,1-1.375.463,7.479,7.479,0,0,1-2,.238,6.33,6.33,0,0,1-2.338-.375A3.447,3.447,0,0,1,26.75-1.163a4.31,4.31,0,0,1-.775-1.725A10.717,10.717,0,0,1,25.75-5.2Zm21.425-.8h3.15V0h-3.15V-7.675H39.65V0H36.5V-17.325h3.15V-10.4h7.525ZM65.05-.4q-.875.225-2.275.463A18.437,18.437,0,0,1,59.7.3a6.78,6.78,0,0,1-2.638-.45,4.234,4.234,0,0,1-1.7-1.25,4.916,4.916,0,0,1-.913-1.912,10.15,10.15,0,0,1-.275-2.438v-7.325H57.2v6.85a5.526,5.526,0,0,0,.612,3,2.4,2.4,0,0,0,2.138.9q.55,0,1.163-.05a6.148,6.148,0,0,0,.912-.125V-13.075H65.05ZM77.575-6.575a5.365,5.365,0,0,0-.762-3.05A2.706,2.706,0,0,0,74.4-10.75a4.363,4.363,0,0,0-1.413.225,4.374,4.374,0,0,0-1.062.5V-2.5a8.34,8.34,0,0,0,.838.138A10.43,10.43,0,0,0,74-2.3a3.235,3.235,0,0,0,2.625-1.138A4.75,4.75,0,0,0,77.575-6.575Zm3.1.05a8.205,8.205,0,0,1-.462,2.838,6.127,6.127,0,0,1-1.325,2.162A5.7,5.7,0,0,1,76.8-.15a7.629,7.629,0,0,1-2.775.475A17.557,17.557,0,0,1,71.162.1,17.917,17.917,0,0,1,68.9-.4V-18.9l3.025-.5v6.775a7.172,7.172,0,0,1,1.288-.5A5.949,5.949,0,0,1,74.9-13.35a5.958,5.958,0,0,1,2.462.487,4.823,4.823,0,0,1,1.813,1.388,6.4,6.4,0,0,1,1.113,2.162A9.47,9.47,0,0,1,80.675-6.525Z" transform="translate(8414 1204)" fill="#00d8ff"/>
    <g id="Group_5" data-name="Group 5" transform="translate(8393 870)">
      <line id="Line_4" data-name="Line 4" x2="145" transform="translate(10 343.5)" fill="none" stroke="#00d8ff" stroke-width="1"/>
      <g id="Ellipse_25" data-name="Ellipse 25" transform="translate(155 338)" fill="none" stroke="#00d8ff" stroke-width="1">
        <circle cx="5" cy="5" r="5" stroke="none"/>
        <circle cx="5" cy="5" r="4.5" fill="none"/>
      </g>
    </g>
  </g>
</svg>
