<svg xmlns="http://www.w3.org/2000/svg" width="155" height="37.2" viewBox="0 0 155 37.2">
  <g id="Group_38" data-name="Group 38" transform="translate(-60 -626.217)">
    <g id="Group_37" data-name="Group 37" transform="translate(50 315.417)">
      <line id="Line_4" data-name="Line 4" x2="145" transform="translate(10 343.5)" fill="none" stroke="#00d8ff" stroke-width="1"/>
      <g id="Ellipse_25" data-name="Ellipse 25" transform="translate(155 338)" fill="none" stroke="#00d8ff" stroke-width="1">
        <circle cx="5" cy="5" r="5" stroke="none"/>
        <circle cx="5" cy="5" r="4.5" fill="none"/>
      </g>
    </g>
    <path id="Path_52" data-name="Path 52" d="M13.025-2.725V0H2.075V-17.325h3.15v14.6ZM14.3-6.475A8.215,8.215,0,0,1,14.813-9.5a6.353,6.353,0,0,1,1.363-2.163,5.64,5.64,0,0,1,1.95-1.3,6.038,6.038,0,0,1,2.25-.438,5.386,5.386,0,0,1,4.213,1.675,7.248,7.248,0,0,1,1.512,5q0,.25-.012.563T26.05-5.6H17.425a3.448,3.448,0,0,0,1.113,2.438A4.227,4.227,0,0,0,21.4-2.3a9.411,9.411,0,0,0,2.013-.2,8.288,8.288,0,0,0,1.438-.425l.4,2.475a4.839,4.839,0,0,1-.687.262,9.712,9.712,0,0,1-1,.25Q23,.175,22.35.25a11.551,11.551,0,0,1-1.325.075,8.018,8.018,0,0,1-3-.513,5.586,5.586,0,0,1-2.1-1.425A5.84,5.84,0,0,1,14.7-3.763,8.779,8.779,0,0,1,14.3-6.475Zm8.775-1.35A3.975,3.975,0,0,0,22.9-9.012a2.864,2.864,0,0,0-.513-.975,2.424,2.424,0,0,0-.825-.65,2.63,2.63,0,0,0-1.163-.238,2.706,2.706,0,0,0-1.225.263,2.792,2.792,0,0,0-.887.687,3.142,3.142,0,0,0-.562.975,5.282,5.282,0,0,0-.275,1.125Zm6.075-8.7,3.025-.5v3.95h4.65v2.525h-4.65v5.325a3.869,3.869,0,0,0,.5,2.25,1.979,1.979,0,0,0,1.7.675,5.541,5.541,0,0,0,1.463-.175A9.881,9.881,0,0,0,36.85-2.8l.5,2.4a11.346,11.346,0,0,1-1.375.463,7.479,7.479,0,0,1-2,.238,6.33,6.33,0,0,1-2.337-.375A3.447,3.447,0,0,1,30.15-1.163a4.31,4.31,0,0,1-.775-1.725A10.717,10.717,0,0,1,29.15-5.2Zm16.575-1.9-4.075,3.95-1.5-1.35L43.825-20.2Zm7.1,16.25a3.98,3.98,0,0,0,1.75-.287,1.022,1.022,0,0,0,.55-.987,1.28,1.28,0,0,0-.588-1.075A8.622,8.622,0,0,0,52.6-5.45a15.307,15.307,0,0,1-1.512-.637A5.162,5.162,0,0,1,49.9-6.875a3.231,3.231,0,0,1-.788-1.088,3.792,3.792,0,0,1-.287-1.563,3.408,3.408,0,0,1,1.325-2.837,5.691,5.691,0,0,1,3.6-1.038,11.07,11.07,0,0,1,2.2.213,10.707,10.707,0,0,1,1.575.412l-.55,2.45a7.412,7.412,0,0,0-1.275-.413,7.706,7.706,0,0,0-1.8-.187,3.133,3.133,0,0,0-1.5.313,1.026,1.026,0,0,0-.575.962,1.388,1.388,0,0,0,.112.575,1.239,1.239,0,0,0,.388.462,3.969,3.969,0,0,0,.725.425,11.183,11.183,0,0,0,1.1.438,16.759,16.759,0,0,1,1.825.788,4.941,4.941,0,0,1,1.238.875,2.993,2.993,0,0,1,.712,1.112,4.442,4.442,0,0,1,.225,1.5A3.231,3.231,0,0,1,56.763-.637,6.907,6.907,0,0,1,52.8.325,10.847,10.847,0,0,1,50.025.038,14.388,14.388,0,0,1,48.55-.425l.525-2.525a13.633,13.633,0,0,0,1.612.525A8.317,8.317,0,0,0,52.825-2.175Zm13.25-4.35a8.02,8.02,0,0,1,.45-2.713,6.438,6.438,0,0,1,1.287-2.187,5.9,5.9,0,0,1,2.037-1.45,6.67,6.67,0,0,1,2.7-.525,9.154,9.154,0,0,1,3.5.675L75.4-10.25a6.867,6.867,0,0,0-1.187-.375,6.385,6.385,0,0,0-1.412-.15,3.311,3.311,0,0,0-2.7,1.112,4.776,4.776,0,0,0-.925,3.138,4.942,4.942,0,0,0,.875,3.088A3.5,3.5,0,0,0,73-2.3a7.757,7.757,0,0,0,1.525-.15,7.166,7.166,0,0,0,1.3-.375l.425,2.5a6.294,6.294,0,0,1-1.512.45,10.748,10.748,0,0,1-2.088.2,7.58,7.58,0,0,1-2.912-.513,5.526,5.526,0,0,1-2.05-1.425,5.906,5.906,0,0,1-1.213-2.175A9.019,9.019,0,0,1,66.075-6.525ZM78.6,0V-18.9l3.025-.5v6.475a8.078,8.078,0,0,1,1.163-.3A7.067,7.067,0,0,1,84.1-13.35a6.759,6.759,0,0,1,2.612.437,4.112,4.112,0,0,1,1.662,1.225A4.772,4.772,0,0,1,89.263-9.8a10.569,10.569,0,0,1,.262,2.45V0H86.5V-6.875a9.928,9.928,0,0,0-.137-1.788,3.168,3.168,0,0,0-.45-1.2,1.8,1.8,0,0,0-.838-.675,3.479,3.479,0,0,0-1.3-.212,6.237,6.237,0,0,0-1.225.125,8.388,8.388,0,0,0-.925.225V0ZM97.75-2.125a11.256,11.256,0,0,0,2.125-.15v-3.35a5.885,5.885,0,0,0-.725-.15A6.759,6.759,0,0,0,98.1-5.85a6.985,6.985,0,0,0-1.012.075,3.155,3.155,0,0,0-.925.275,1.677,1.677,0,0,0-.662.563,1.571,1.571,0,0,0-.25.912,1.6,1.6,0,0,0,.675,1.488A3.482,3.482,0,0,0,97.75-2.125ZM97.5-13.4a7.4,7.4,0,0,1,2.525.375,4.032,4.032,0,0,1,1.637,1.05,3.933,3.933,0,0,1,.875,1.637,8.014,8.014,0,0,1,.262,2.113V-.3q-.7.15-2.112.363A21.574,21.574,0,0,1,97.5.275,9.568,9.568,0,0,1,95.35.05a4.52,4.52,0,0,1-1.662-.725,3.421,3.421,0,0,1-1.075-1.3,4.51,4.51,0,0,1-.387-1.975,3.814,3.814,0,0,1,.438-1.9A3.591,3.591,0,0,1,93.85-7.113a5.141,5.141,0,0,1,1.738-.7,9.78,9.78,0,0,1,2.063-.213,9.311,9.311,0,0,1,1.05.063,9.794,9.794,0,0,1,1.175.213v-.5a3.914,3.914,0,0,0-.125-1,2.072,2.072,0,0,0-.437-.837,2.047,2.047,0,0,0-.825-.562,3.57,3.57,0,0,0-1.287-.2,11.426,11.426,0,0,0-1.925.15,8.464,8.464,0,0,0-1.425.35l-.375-2.45a11.908,11.908,0,0,1,1.675-.4A13.135,13.135,0,0,1,97.5-13.4Zm8.85-3.125,3.025-.5v3.95h4.65v2.525h-4.65v5.325a3.869,3.869,0,0,0,.5,2.25,1.979,1.979,0,0,0,1.7.675,5.541,5.541,0,0,0,1.463-.175A9.881,9.881,0,0,0,114.05-2.8l.5,2.4a11.346,11.346,0,0,1-1.375.463,7.479,7.479,0,0,1-2,.238,6.33,6.33,0,0,1-2.338-.375,3.447,3.447,0,0,1-1.487-1.088,4.31,4.31,0,0,1-.775-1.725A10.717,10.717,0,0,1,106.35-5.2Zm13.275,1.375a6.5,6.5,0,0,0-1.675.212,7.657,7.657,0,0,0-1.675.688l-.85-2.325a8.8,8.8,0,0,1,2.112-.838,9.538,9.538,0,0,1,2.438-.312,6.394,6.394,0,0,1,2.475.413A4.394,4.394,0,0,1,124-16.275a3.507,3.507,0,0,1,.8,1.375,5.038,5.038,0,0,1,.225,1.45,3.589,3.589,0,0,1-.312,1.525,5.744,5.744,0,0,1-.787,1.25A11.471,11.471,0,0,1,122.9-9.588q-.55.513-1.025,1.05a5.677,5.677,0,0,0-.787,1.138,2.878,2.878,0,0,0-.312,1.35v.288a1.9,1.9,0,0,0,.025.313h-2.6a4.918,4.918,0,0,1-.075-.538q-.025-.287-.025-.537A3.754,3.754,0,0,1,118.375-8a5.385,5.385,0,0,1,.7-1.2,9.764,9.764,0,0,1,.912-1.025q.487-.475.912-.95a5.292,5.292,0,0,0,.7-.975,2.245,2.245,0,0,0,.275-1.1,1.8,1.8,0,0,0-.562-1.363A2.358,2.358,0,0,0,119.625-15.15Zm1.95,13.5A1.883,1.883,0,0,1,121-.225a1.982,1.982,0,0,1-1.425.55,1.994,1.994,0,0,1-1.413-.55,1.863,1.863,0,0,1-.587-1.425,1.9,1.9,0,0,1,.587-1.437,1.97,1.97,0,0,1,1.413-.562A1.958,1.958,0,0,1,121-3.087,1.924,1.924,0,0,1,121.575-1.65Z" transform="translate(69 646.417)" fill="#00d8ff"/>
  </g>
</svg>
