<svg xmlns="http://www.w3.org/2000/svg" width="374" height="435.692" viewBox="0 0 374 435.692">
  <g id="Group_43" data-name="Group 43" transform="translate(-826 -2917.308)">
    <path id="Union_5" data-name="Union 5" d="M-4278,229.693v-185h3.285L-3904-206V229.693Z" transform="translate(5104 3123.307)" fill="#fff"/>
    <g id="Group_16" data-name="Group 16" transform="translate(847 -601.193)">
      <g id="Group_58" transform="translate(48.946 3454.225)">
        <g id="Ellipse_2" transform="translate(189.655 233.369) rotate(39)">
          <ellipse id="Ellipse_20" data-name="Ellipse 20" cx="34.703" cy="35.839" rx="34.703" ry="35.839" transform="translate(71.721 0.006) rotate(90)" fill="none"/>
          <path id="Path_13" data-name="Path 13" d="M58.829,61.451a36.27,36.27,0,0,1-22.99,8.042C16.084,69.493,0,53.934,0,34.79A34.139,34.139,0,0,1,10.49,10.227,36.06,36.06,0,0,1,35.839,0h0a36.052,36.052,0,0,1,25.35,10.14A33.8,33.8,0,0,1,71.678,34.7a34.139,34.139,0,0,1-10.49,24.563C60.4,60.053,59.615,60.752,58.829,61.451ZM13.462,8.741a25.442,25.442,0,0,0-2.36,2.1A33.154,33.154,0,0,0,.874,34.7c0,18.706,15.734,33.829,34.965,33.829a35.422,35.422,0,0,0,24.738-9.878A32.86,32.86,0,0,0,70.8,34.7,33.35,33.35,0,0,0,60.577,10.752,35.269,35.269,0,0,0,35.839.874h0A35.435,35.435,0,0,0,13.462,8.741Z" transform="translate(0 0)" fill="#272727"/>
        </g>
        <g id="Ellipse_5" transform="translate(189.294 216.398) rotate(39)">
          <circle id="Ellipse_21" data-name="Ellipse 21" cx="34.965" cy="34.965" r="34.965" fill="none"/>
          <path id="Path_14" data-name="Path 14" d="M56.906,62.15a34.337,34.337,0,0,1-21.941,7.78,34.965,34.965,0,0,1,0-69.93h0A34.985,34.985,0,0,1,59.7,59.7C58.829,60.577,57.867,61.364,56.906,62.15ZM14.685,9.79a32.395,32.395,0,1,0,20.28-7.168h0A32.184,32.184,0,0,0,14.685,9.79Z" transform="translate(0 0)" fill="#272727"/>
        </g>
        <g id="Ellipse_6" transform="translate(178.747 202.775) rotate(39)">
          <circle id="Ellipse_22" data-name="Ellipse 22" cx="35.402" cy="35.402" r="35.402" transform="translate(0 0)" fill="none"/>
          <path id="Path_15" data-name="Path 15" d="M57.6,62.937A35.421,35.421,0,0,1,35.4,70.8a34.9,34.9,0,0,1-25-10.4A35.355,35.355,0,0,1,35.4,0h0a34.9,34.9,0,0,1,25,10.4,35.284,35.284,0,0,1-2.8,52.535Zm-41.7-51.661A31.139,31.139,0,0,0,4.371,35.4a31.032,31.032,0,1,0,62.063,0A31.038,31.038,0,0,0,35.4,4.371h0A31.149,31.149,0,0,0,15.909,11.276Z" transform="translate(0 0)" fill="#272727"/>
        </g>
        <g id="Ellipse_7" transform="translate(171.852 233.769) rotate(39)">
          <circle id="Ellipse_23" data-name="Ellipse 23" cx="35.402" cy="35.402" r="35.402" fill="none"/>
          <path id="Path_16" data-name="Path 16" d="M57.6,62.937A35.421,35.421,0,0,1,35.4,70.8a34.9,34.9,0,0,1-25-10.4A35.41,35.41,0,0,1,0,35.4a34.9,34.9,0,0,1,10.4-25A34.9,34.9,0,0,1,35.4,0,35.376,35.376,0,0,1,57.6,62.937ZM14.248,9.178q-1.442,1.18-2.622,2.36A33.523,33.523,0,0,0,1.748,35.4,33.725,33.725,0,0,0,35.4,69.056,33.654,33.654,0,1,0,14.248,9.178Z" transform="translate(0 0)" fill="#272727"/>
        </g>
        <g id="Ellipse_8" transform="translate(170.723 217.107) rotate(39)">
          <circle id="Ellipse_24" data-name="Ellipse 24" cx="34.965" cy="34.965" r="34.965" fill="none"/>
          <path id="Path_17" data-name="Path 17" d="M56.906,62.15a34.438,34.438,0,0,1-21.941,7.78A34.965,34.965,0,1,1,59.7,10.227,34.488,34.488,0,0,1,69.93,34.965,34.853,34.853,0,0,1,56.906,62.15ZM15.21,10.49c-.874.7-1.661,1.486-2.535,2.273A30.988,30.988,0,0,0,3.5,34.965,31.523,31.523,0,1,0,34.965,3.5h0A31.159,31.159,0,0,0,15.21,10.49Z" transform="translate(0 0)" fill="#272727"/>
        </g>
      </g>
      <g id="Group_7" data-name="Group 7" transform="translate(47 3399)">
        <path id="Path_64" data-name="Path 64" d="M1.38-14.28V0H4.52V-5.9H10.5V-8.34H4.52v-3.3h6.9v-2.64Zm11.86,0V0h10.1V-2.64H16.38V-14.28Zm14.38,7.2a7.814,7.814,0,0,1,.21-1.82,4.82,4.82,0,0,1,.67-1.57,3.4,3.4,0,0,1,1.2-1.1,3.666,3.666,0,0,1,1.8-.41,3.666,3.666,0,0,1,1.8.41,3.4,3.4,0,0,1,1.2,1.1,4.82,4.82,0,0,1,.67,1.57,7.814,7.814,0,0,1,.21,1.82,7.269,7.269,0,0,1-.21,1.75A4.729,4.729,0,0,1,34.5-3.8a3.434,3.434,0,0,1-1.2,1.09,3.666,3.666,0,0,1-1.8.41,3.666,3.666,0,0,1-1.8-.41A3.434,3.434,0,0,1,28.5-3.8a4.729,4.729,0,0,1-.67-1.53A7.269,7.269,0,0,1,27.62-7.08Zm-3.14,0a8.625,8.625,0,0,0,.48,2.91,6.95,6.95,0,0,0,1.38,2.35A6.321,6.321,0,0,0,28.55-.25,7.322,7.322,0,0,0,31.5.32a7.3,7.3,0,0,0,2.96-.57,6.343,6.343,0,0,0,2.2-1.57,6.95,6.95,0,0,0,1.38-2.35,8.625,8.625,0,0,0,.48-2.91,8.923,8.923,0,0,0-.48-2.97,7.134,7.134,0,0,0-1.38-2.39,6.332,6.332,0,0,0-2.2-1.6,7.194,7.194,0,0,0-2.96-.58,7.213,7.213,0,0,0-2.95.58,6.31,6.31,0,0,0-2.21,1.6,7.134,7.134,0,0,0-1.38,2.39A8.923,8.923,0,0,0,24.48-7.08ZM54.26,0,58.1-14.28H55.02L52.68-4.44h-.04L50.2-14.28H47.26L44.78-4.56h-.04l-2.26-9.72H39.34L43.12,0H46.3l2.38-9.72h.04L51.14,0Z" transform="translate(125 414)" fill="#272727"/>
        <path id="Path_65" data-name="Path 65" d="M.72-7.14a9.146,9.146,0,0,1,.46-2.93,7.03,7.03,0,0,1,1.33-2.38,6.16,6.16,0,0,1,2.14-1.59,6.833,6.833,0,0,1,2.87-.58,6.465,6.465,0,0,1,2.18.33,5.569,5.569,0,0,1,1.55.82,4.858,4.858,0,0,1,1.03,1.07,5.921,5.921,0,0,1,.61,1.09,5.352,5.352,0,0,1,.29.88q.08.37.08.41h-.88a4.265,4.265,0,0,0-.58-1.61,4.435,4.435,0,0,0-1.1-1.21,4.889,4.889,0,0,0-1.47-.76,5.561,5.561,0,0,0-1.71-.26,5.6,5.6,0,0,0-2.5.54,5.615,5.615,0,0,0-1.86,1.45A6.389,6.389,0,0,0,2-9.74a8.294,8.294,0,0,0-.4,2.6A8.294,8.294,0,0,0,2-4.54,6.389,6.389,0,0,0,3.16-2.41,5.615,5.615,0,0,0,5.02-.96a5.6,5.6,0,0,0,2.5.54A4.507,4.507,0,0,0,9.47-.85a5.338,5.338,0,0,0,1.59-1.14,5.636,5.636,0,0,0,1.09-1.64,5.577,5.577,0,0,0,.47-1.93h.88a7.015,7.015,0,0,1-.63,2.36,6.606,6.606,0,0,1-1.3,1.87A5.708,5.708,0,0,1,9.74-.1,5.638,5.638,0,0,1,7.52.34,6.833,6.833,0,0,1,4.65-.24,6.16,6.16,0,0,1,2.51-1.83,7.03,7.03,0,0,1,1.18-4.21,9.146,9.146,0,0,1,.72-7.14Zm14.62-7.14h9.6v.76H16.22V-7.8h8.2v.76h-8.2V-.76h8.82V0h-9.7Zm11.2,0h6.08a7.114,7.114,0,0,1,1.33.14,3.59,3.59,0,0,1,1.36.57,3.331,3.331,0,0,1,1.05,1.22,4.408,4.408,0,0,1,.42,2.07,3.657,3.657,0,0,1-1.16,2.9A4.873,4.873,0,0,1,32.3-6.36H27.42V0h-.88Zm.88,7.16h5.02a4.1,4.1,0,0,0,1.63-.29,2.932,2.932,0,0,0,1.07-.75,2.89,2.89,0,0,0,.58-1.02,3.642,3.642,0,0,0,.18-1.12,4.552,4.552,0,0,0-.12-.95,2.907,2.907,0,0,0-.48-1.06,2.873,2.873,0,0,0-1.01-.86,3.655,3.655,0,0,0-1.73-.35H27.42Zm9.4-6.4v-.76H47.76v.76H42.72V0h-.88V-13.52Zm11.92-.76h.88V0h-.88ZM65.08-7.14a9.146,9.146,0,0,1-.46,2.93,7.03,7.03,0,0,1-1.33,2.38A6.184,6.184,0,0,1,61.16-.24,6.765,6.765,0,0,1,58.3.34a6.833,6.833,0,0,1-2.87-.58,6.16,6.16,0,0,1-2.14-1.59,7.03,7.03,0,0,1-1.33-2.38,9.146,9.146,0,0,1-.46-2.93,9.146,9.146,0,0,1,.46-2.93,7.03,7.03,0,0,1,1.33-2.38,6.16,6.16,0,0,1,2.14-1.59,6.833,6.833,0,0,1,2.87-.58,6.765,6.765,0,0,1,2.86.58,6.184,6.184,0,0,1,2.13,1.59,7.03,7.03,0,0,1,1.33,2.38A9.146,9.146,0,0,1,65.08-7.14Zm-12.7,0a8.294,8.294,0,0,0,.4,2.6,6.389,6.389,0,0,0,1.16,2.13A5.615,5.615,0,0,0,55.8-.96a5.6,5.6,0,0,0,2.5.54,5.536,5.536,0,0,0,2.49-.54,5.645,5.645,0,0,0,1.85-1.45A6.389,6.389,0,0,0,63.8-4.54a8.294,8.294,0,0,0,.4-2.6,8.294,8.294,0,0,0-.4-2.6,6.389,6.389,0,0,0-1.16-2.13,5.645,5.645,0,0,0-1.85-1.45,5.536,5.536,0,0,0-2.49-.54,5.6,5.6,0,0,0-2.5.54,5.615,5.615,0,0,0-1.86,1.45,6.389,6.389,0,0,0-1.16,2.13A8.294,8.294,0,0,0,52.38-7.14Zm14.58-7.14h1.1l9.02,13.1h.04v-13.1H78V0H76.96L67.88-13.2h-.04V0h-.88Z" transform="translate(185 414)" fill="#272727"/>
      </g>
    </g>
    <path id="Path_66" data-name="Path 66" d="M-90.825-2.13a2.792,2.792,0,0,1-1.087-.21,2.589,2.589,0,0,1-.878-.6,2.71,2.71,0,0,1-.585-.968,3.825,3.825,0,0,1-.21-1.312A3.333,3.333,0,0,1-93.353-6.5a2.976,2.976,0,0,1,.622-.96,2.585,2.585,0,0,1,.9-.6,2.86,2.86,0,0,1,1.065-.2,2.975,2.975,0,0,1,1.192.2,3.837,3.837,0,0,1,.622.323l-.285.675a6.177,6.177,0,0,0-.577-.263,2.6,2.6,0,0,0-.952-.142,1.8,1.8,0,0,0-1.373.585,2.345,2.345,0,0,0-.547,1.665,2.464,2.464,0,0,0,.532,1.7,1.848,1.848,0,0,0,1.448.593,2.886,2.886,0,0,0,1.012-.143,3.268,3.268,0,0,0,.533-.247l.255.72a3.934,3.934,0,0,1-.69.292A3.776,3.776,0,0,1-90.825-2.13Zm5.01-3.075a5.907,5.907,0,0,1-.42,2.295,5.221,5.221,0,0,1-1.118,1.7,4.756,4.756,0,0,1-1.62,1.065A5.161,5.161,0,0,1-90.9.225a5.161,5.161,0,0,1-1.927-.367,4.756,4.756,0,0,1-1.62-1.065,5.221,5.221,0,0,1-1.118-1.7,5.907,5.907,0,0,1-.42-2.295,5.922,5.922,0,0,1,.42-2.288,5.118,5.118,0,0,1,1.118-1.7,4.81,4.81,0,0,1,1.62-1.057A5.161,5.161,0,0,1-90.9-10.62a5.161,5.161,0,0,1,1.927.368,4.81,4.81,0,0,1,1.62,1.057,5.118,5.118,0,0,1,1.118,1.7A5.922,5.922,0,0,1-85.815-5.2Zm-.885,0a5.431,5.431,0,0,0-.315-1.89,4.389,4.389,0,0,0-.87-1.463,3.794,3.794,0,0,0-1.327-.937,4.251,4.251,0,0,0-1.687-.33,4.251,4.251,0,0,0-1.687.33,3.794,3.794,0,0,0-1.327.938,4.389,4.389,0,0,0-.87,1.463A5.431,5.431,0,0,0-95.1-5.2a5.431,5.431,0,0,0,.315,1.89,4.389,4.389,0,0,0,.87,1.463,3.879,3.879,0,0,0,1.327.945A4.169,4.169,0,0,0-90.9-.57a4.169,4.169,0,0,0,1.688-.337,3.879,3.879,0,0,0,1.327-.945,4.389,4.389,0,0,0,.87-1.463A5.431,5.431,0,0,0-86.7-5.2Zm12.255-2.61a2.9,2.9,0,0,1-.21,1.1,4.617,4.617,0,0,1-.562,1,8.086,8.086,0,0,1-.8.93q-.45.45-.915.9-.39.375-.757.757a8.989,8.989,0,0,0-.66.765,4.143,4.143,0,0,0-.465.75,1.7,1.7,0,0,0-.173.728v.03h4.9V0H-80.07q0-.03-.007-.112t-.007-.248a3.356,3.356,0,0,1,.255-1.313,5.56,5.56,0,0,1,.652-1.147,7.67,7.67,0,0,1,.885-1q.488-.465.938-.9.375-.36.713-.7a5.415,5.415,0,0,0,.592-.7,3.3,3.3,0,0,0,.4-.765,2.529,2.529,0,0,0,.15-.885,1.835,1.835,0,0,0-.562-1.508,2.173,2.173,0,0,0-1.418-.457,2.8,2.8,0,0,0-.855.12,3.459,3.459,0,0,0-.653.278,3.1,3.1,0,0,0-.472.322q-.195.165-.285.255l-.51-.675a3.448,3.448,0,0,1,.322-.307,3.39,3.39,0,0,1,.585-.4,4.278,4.278,0,0,1,.818-.337,3.524,3.524,0,0,1,1.035-.142,3.153,3.153,0,0,1,2.28.742A2.741,2.741,0,0,1-74.445-7.815ZM-71.94-5.19a7.679,7.679,0,0,1,.87-4.035,2.757,2.757,0,0,1,2.475-1.395,2.762,2.762,0,0,1,2.467,1.395A7.625,7.625,0,0,1-65.25-5.19a7.59,7.59,0,0,1-.877,4.02,2.762,2.762,0,0,1-2.467,1.4,2.762,2.762,0,0,1-2.468-1.4A7.59,7.59,0,0,1-71.94-5.19Zm5.625,0a12.6,12.6,0,0,0-.113-1.718,5.612,5.612,0,0,0-.382-1.447,2.706,2.706,0,0,0-.705-1.005,1.6,1.6,0,0,0-1.08-.375,1.617,1.617,0,0,0-1.1.375,2.637,2.637,0,0,0-.7,1.005,5.827,5.827,0,0,0-.375,1.447,12.6,12.6,0,0,0-.113,1.718,12.6,12.6,0,0,0,.113,1.717,5.708,5.708,0,0,0,.375,1.44,2.646,2.646,0,0,0,.7,1,1.617,1.617,0,0,0,1.1.375,1.6,1.6,0,0,0,1.08-.375,2.717,2.717,0,0,0,.705-1,5.5,5.5,0,0,0,.382-1.44A12.6,12.6,0,0,0-66.315-5.19Zm8.79-2.625a2.9,2.9,0,0,1-.21,1.1,4.617,4.617,0,0,1-.562,1,8.086,8.086,0,0,1-.8.93q-.45.45-.915.9-.39.375-.757.757a8.99,8.99,0,0,0-.66.765,4.143,4.143,0,0,0-.465.75,1.7,1.7,0,0,0-.173.728v.03h4.905V0H-63.15q0-.03-.007-.112t-.007-.248a3.356,3.356,0,0,1,.255-1.313,5.56,5.56,0,0,1,.652-1.147,7.671,7.671,0,0,1,.885-1q.488-.465.938-.9.375-.36.713-.7a5.415,5.415,0,0,0,.592-.7,3.3,3.3,0,0,0,.4-.765,2.529,2.529,0,0,0,.15-.885,1.835,1.835,0,0,0-.562-1.508,2.173,2.173,0,0,0-1.417-.457,2.8,2.8,0,0,0-.855.12,3.459,3.459,0,0,0-.653.278,3.1,3.1,0,0,0-.472.322q-.2.165-.285.255l-.51-.675a3.448,3.448,0,0,1,.322-.307,3.39,3.39,0,0,1,.585-.4,4.278,4.278,0,0,1,.817-.337,3.524,3.524,0,0,1,1.035-.142,3.153,3.153,0,0,1,2.28.742A2.741,2.741,0,0,1-57.525-7.815Zm3.225-.45a6.692,6.692,0,0,0,1.6-.8A6.986,6.986,0,0,0-51.3-10.4h.69V0h-.975V-8.91a3.04,3.04,0,0,1-.428.375,5.792,5.792,0,0,1-.592.382q-.33.188-.69.36a4.733,4.733,0,0,1-.72.278Zm10.695,3.45h3.39v.945h-3.39Zm11.16-3.09a5.25,5.25,0,0,1,.907.075,2.782,2.782,0,0,1,.593.15l-.195.84a2.169,2.169,0,0,0-.488-.128,5.565,5.565,0,0,0-.968-.068,4.581,4.581,0,0,0-1.012.09,2.791,2.791,0,0,0-.5.15V0h-.975V-7.395a7.191,7.191,0,0,1,1.035-.338A6.433,6.433,0,0,1-32.445-7.905ZM-22.86-3.87A5.014,5.014,0,0,1-23.122-2.2,3.713,3.713,0,0,1-23.857-.93a3.347,3.347,0,0,1-1.118.818A3.41,3.41,0,0,1-26.4.18a3.41,3.41,0,0,1-1.425-.293A3.347,3.347,0,0,1-28.942-.93,3.713,3.713,0,0,1-29.677-2.2,5.014,5.014,0,0,1-29.94-3.87a5.014,5.014,0,0,1,.262-1.665,3.8,3.8,0,0,1,.735-1.282,3.3,3.3,0,0,1,1.118-.825A3.41,3.41,0,0,1-26.4-7.935a3.41,3.41,0,0,1,1.425.292,3.3,3.3,0,0,1,1.118.825,3.8,3.8,0,0,1,.735,1.282A5.014,5.014,0,0,1-22.86-3.87Zm-1.035,0a3.661,3.661,0,0,0-.675-2.318A2.2,2.2,0,0,0-26.4-7.05a2.2,2.2,0,0,0-1.83.863A3.661,3.661,0,0,0-28.9-3.87a3.628,3.628,0,0,0,.675,2.31A2.208,2.208,0,0,0-26.4-.7a2.208,2.208,0,0,0,1.83-.855A3.628,3.628,0,0,0-23.9-3.87ZM-14.58-.24a8.77,8.77,0,0,1-1.11.285A8.958,8.958,0,0,1-17.4.18,4.166,4.166,0,0,1-18.953-.1a3.356,3.356,0,0,1-1.2-.8,3.647,3.647,0,0,1-.78-1.275A4.86,4.86,0,0,1-21.21-3.87,5.424,5.424,0,0,1-20.978-5.5,3.709,3.709,0,0,1-20.3-6.78a3.1,3.1,0,0,1,1.1-.84,3.536,3.536,0,0,1,1.492-.3,3.675,3.675,0,0,1,1.328.218,3.47,3.47,0,0,1,.817.412v-4.17l.975-.18Zm-.975-6.105a3.278,3.278,0,0,0-.337-.225,3.214,3.214,0,0,0-.472-.225,3.823,3.823,0,0,0-.585-.173,3.143,3.143,0,0,0-.66-.068,2.584,2.584,0,0,0-1.207.255,2.176,2.176,0,0,0-.788.682,2.865,2.865,0,0,0-.435,1.005,5.357,5.357,0,0,0-.135,1.223,3.31,3.31,0,0,0,.765,2.347A2.643,2.643,0,0,0-17.385-.7a8.021,8.021,0,0,0,1.163-.067,4.317,4.317,0,0,0,.667-.143ZM-2.985-.87a1.568,1.568,0,0,1-.772-.165,1.261,1.261,0,0,1-.428-.36,3.871,3.871,0,0,1-.735.36,2.8,2.8,0,0,1-1.02.18,3.807,3.807,0,0,1-1.268-.2,2.729,2.729,0,0,1-1.005-.615A2.816,2.816,0,0,1-8.88-2.715,4.166,4.166,0,0,1-9.12-4.2,3.931,3.931,0,0,1-8.9-5.52a3.151,3.151,0,0,1,.63-1.073,2.9,2.9,0,0,1,1.02-.72,3.468,3.468,0,0,1,1.388-.262,6.038,6.038,0,0,1,1.3.128,5.792,5.792,0,0,1,.908.262V-2.79a1.363,1.363,0,0,0,.2.84.647.647,0,0,0,.533.255,1.127,1.127,0,0,0,.833-.322,2.289,2.289,0,0,0,.51-.81A4.619,4.619,0,0,0-1.32-3.862a7.4,7.4,0,0,0,.075-1,5.28,5.28,0,0,0-.33-1.86,4.614,4.614,0,0,0-.953-1.552A4.585,4.585,0,0,0-4.05-9.337a5,5,0,0,0-2.04-.4,5.75,5.75,0,0,0-2.1.368A4.438,4.438,0,0,0-9.81-8.3a4.892,4.892,0,0,0-1.05,1.733,6.822,6.822,0,0,0-.375,2.348,6.662,6.662,0,0,0,.412,2.445A4.948,4.948,0,0,0-9.69-.015a4.64,4.64,0,0,0,1.7,1.058,6.24,6.24,0,0,0,2.122.352,8.911,8.911,0,0,0,1.372-.082,4.525,4.525,0,0,0,.668-.142l.1.825a7.2,7.2,0,0,1-.855.165,8.708,8.708,0,0,1-1.29.09,7.776,7.776,0,0,1-2.46-.383A5.428,5.428,0,0,1-10.343.683a5.667,5.667,0,0,1-1.365-2.018,7.511,7.511,0,0,1-.5-2.88,7.523,7.523,0,0,1,.48-2.805,5.574,5.574,0,0,1,1.312-2A5.33,5.33,0,0,1-8.468-10.2a7.164,7.164,0,0,1,2.377-.39,6.258,6.258,0,0,1,2.258.4A5.574,5.574,0,0,1-1.98-9.03,5.38,5.38,0,0,1-.728-7.215,5.985,5.985,0,0,1-.27-4.83,6.333,6.333,0,0,1-.48-3.112a3.788,3.788,0,0,1-.577,1.237,2.5,2.5,0,0,1-.863.75A2.292,2.292,0,0,1-2.985-.87ZM-6-1.665a3.357,3.357,0,0,0,.825-.082,2.5,2.5,0,0,0,.66-.293A1.411,1.411,0,0,1-4.6-2.423q-.022-.232-.023-.4V-6.63q-.12-.03-.39-.082a4.146,4.146,0,0,0-.75-.053,2.575,2.575,0,0,0-1.012.188,2.044,2.044,0,0,0-.743.525,2.206,2.206,0,0,0-.45.81,3.38,3.38,0,0,0-.15,1.028,3.517,3.517,0,0,0,.165,1.14,2.265,2.265,0,0,0,.45.8,1.743,1.743,0,0,0,.675.465A2.278,2.278,0,0,0-6-1.665ZM4.95-11.64a4.438,4.438,0,0,1,1.028.1,2.112,2.112,0,0,1,.517.173l-.2.84a3.114,3.114,0,0,0-.487-.157,3.375,3.375,0,0,0-.817-.082,1.836,1.836,0,0,0-1.478.525,2.589,2.589,0,0,0-.443,1.68v.81h3.12v.825H3.075V0H2.1V-8.6a3.283,3.283,0,0,1,.7-2.28A2.775,2.775,0,0,1,4.95-11.64ZM9.7.135A3.3,3.3,0,0,1,8.842.008a1.541,1.541,0,0,1-.615-.345,1.464,1.464,0,0,1-.375-.6,2.849,2.849,0,0,1-.128-.923v-9.6l.975-.18v9.75a2.006,2.006,0,0,0,.068.577.782.782,0,0,0,.2.345.821.821,0,0,0,.352.187,4.462,4.462,0,0,0,.517.105Zm8.475-4A5.014,5.014,0,0,1,17.918-2.2,3.713,3.713,0,0,1,17.183-.93a3.347,3.347,0,0,1-1.118.818A3.41,3.41,0,0,1,14.64.18a3.41,3.41,0,0,1-1.425-.293A3.347,3.347,0,0,1,12.1-.93,3.713,3.713,0,0,1,11.363-2.2,5.014,5.014,0,0,1,11.1-3.87a5.014,5.014,0,0,1,.262-1.665A3.8,3.8,0,0,1,12.1-6.817a3.3,3.3,0,0,1,1.117-.825,3.41,3.41,0,0,1,1.425-.292,3.41,3.41,0,0,1,1.425.292,3.3,3.3,0,0,1,1.118.825,3.8,3.8,0,0,1,.735,1.282A5.014,5.014,0,0,1,18.18-3.87Zm-1.035,0a3.661,3.661,0,0,0-.675-2.318,2.2,2.2,0,0,0-1.83-.863,2.2,2.2,0,0,0-1.83.863,3.661,3.661,0,0,0-.675,2.318,3.628,3.628,0,0,0,.675,2.31A2.208,2.208,0,0,0,14.64-.7a2.208,2.208,0,0,0,1.83-.855A3.628,3.628,0,0,0,17.145-3.87ZM25.29-7.755q.135.75.353,1.6t.48,1.725q.263.878.555,1.733T27.27-1.1q.255-.57.54-1.388t.57-1.725q.285-.908.533-1.83t.412-1.718h.96q-.54,2.28-1.177,4.17T27.7,0H26.79q-.225-.525-.472-1.178t-.51-1.395q-.262-.743-.51-1.56T24.825-5.8q-.225.855-.472,1.672t-.51,1.56q-.262.742-.51,1.395T22.86,0h-.93q-.765-1.695-1.4-3.585T19.35-7.755h1.035q.165.8.413,1.718t.533,1.83q.285.908.577,1.717t.548,1.38q.285-.75.577-1.6T23.58-4.44q.255-.87.48-1.717t.39-1.6ZM35.13.165A4.138,4.138,0,0,1,33.54-.12a2.991,2.991,0,0,1-1.147-.817,3.655,3.655,0,0,1-.7-1.275,5.319,5.319,0,0,1-.24-1.643A5.292,5.292,0,0,1,31.7-5.52a3.754,3.754,0,0,1,.712-1.29,3.149,3.149,0,0,1,1.125-.833,3.628,3.628,0,0,1,1.485-.292,6.252,6.252,0,0,1,1.177.1,2.962,2.962,0,0,1,.847.27l-.255.84a3.149,3.149,0,0,0-.675-.24,4.477,4.477,0,0,0-1-.09,2.36,2.36,0,0,0-1.958.833,3.692,3.692,0,0,0-.667,2.362,5.036,5.036,0,0,0,.15,1.267,2.553,2.553,0,0,0,.488.99A2.281,2.281,0,0,0,34-.953a3.237,3.237,0,0,0,1.3.233,3.38,3.38,0,0,0,1.057-.142,4.273,4.273,0,0,0,.623-.248l.21.84a3.659,3.659,0,0,1-.847.292A5.023,5.023,0,0,1,35.13.165Zm3.225-4.05a4.923,4.923,0,0,1,.292-1.777,3.915,3.915,0,0,1,.765-1.268,3.011,3.011,0,0,1,1.08-.757,3.29,3.29,0,0,1,1.252-.247,2.924,2.924,0,0,1,2.272.93,4.147,4.147,0,0,1,.847,2.865q0,.12-.007.24t-.022.225H39.39a3.43,3.43,0,0,0,.7,2.19,2.631,2.631,0,0,0,2.1.765,4.243,4.243,0,0,0,1.26-.15,5.259,5.259,0,0,0,.675-.255l.18.84A4.053,4.053,0,0,1,43.522,0a4.969,4.969,0,0,1-1.358.165,4.519,4.519,0,0,1-1.74-.3,3.114,3.114,0,0,1-1.185-.84,3.321,3.321,0,0,1-.675-1.282A5.965,5.965,0,0,1,38.355-3.885ZM43.86-4.5a3.08,3.08,0,0,0-.57-1.89,1.847,1.847,0,0,0-1.53-.675,2.037,2.037,0,0,0-.937.21,2.381,2.381,0,0,0-.72.563,2.613,2.613,0,0,0-.48.817,3.353,3.353,0,0,0-.2.975Zm4.155,3.105a3.278,3.278,0,0,0,.338.225,3.214,3.214,0,0,0,.472.225,3.823,3.823,0,0,0,.585.173,3.143,3.143,0,0,0,.66.067,2.65,2.65,0,0,0,1.208-.248,2.111,2.111,0,0,0,.787-.675A2.865,2.865,0,0,0,52.5-2.633a5.357,5.357,0,0,0,.135-1.222A3.31,3.31,0,0,0,51.87-6.2a2.643,2.643,0,0,0-2.025-.817,8.021,8.021,0,0,0-1.163.068,4.318,4.318,0,0,0-.667.142Zm0,4.17H47.04V-7.485a8.769,8.769,0,0,1,1.11-.285,8.958,8.958,0,0,1,1.71-.135,4.166,4.166,0,0,1,1.552.278,3.356,3.356,0,0,1,1.2.8,3.647,3.647,0,0,1,.78,1.275,4.86,4.86,0,0,1,.277,1.7,5.424,5.424,0,0,1-.232,1.628,3.629,3.629,0,0,1-.682,1.275,3.141,3.141,0,0,1-1.1.833,3.536,3.536,0,0,1-1.493.3,3.675,3.675,0,0,1-1.327-.218,3.47,3.47,0,0,1-.818-.412ZM56.7-7.755h3.09v.825H56.7v4.125a4.19,4.19,0,0,0,.112,1.072,1.5,1.5,0,0,0,.322.638,1.023,1.023,0,0,0,.51.3,2.72,2.72,0,0,0,.66.075,2.843,2.843,0,0,0,.99-.142,4.31,4.31,0,0,0,.585-.262l.24.81a3.527,3.527,0,0,1-.735.307,3.632,3.632,0,0,1-1.14.172,3.384,3.384,0,0,1-1.208-.187,1.746,1.746,0,0,1-.78-.57,2.337,2.337,0,0,1-.413-.952,6.631,6.631,0,0,1-.12-1.35v-7.14l.975-.18ZM62.565,0H61.59V-7.755h.975Zm.225-10.095a.725.725,0,0,1-.21.547.708.708,0,0,1-.51.2.708.708,0,0,1-.51-.2.725.725,0,0,1-.21-.547.725.725,0,0,1,.21-.548.708.708,0,0,1,.51-.2.708.708,0,0,1,.51.2A.725.725,0,0,1,62.79-10.095ZM71.76-3.87A5.014,5.014,0,0,1,71.5-2.2,3.713,3.713,0,0,1,70.762-.93a3.347,3.347,0,0,1-1.118.818A3.41,3.41,0,0,1,68.22.18a3.41,3.41,0,0,1-1.425-.293A3.347,3.347,0,0,1,65.677-.93,3.713,3.713,0,0,1,64.942-2.2,5.014,5.014,0,0,1,64.68-3.87a5.014,5.014,0,0,1,.263-1.665,3.8,3.8,0,0,1,.735-1.282,3.3,3.3,0,0,1,1.118-.825,3.41,3.41,0,0,1,1.425-.292,3.41,3.41,0,0,1,1.425.292,3.3,3.3,0,0,1,1.118.825A3.8,3.8,0,0,1,71.5-5.535,5.014,5.014,0,0,1,71.76-3.87Zm-1.035,0a3.661,3.661,0,0,0-.675-2.318,2.2,2.2,0,0,0-1.83-.863,2.2,2.2,0,0,0-1.83.863,3.661,3.661,0,0,0-.675,2.318,3.628,3.628,0,0,0,.675,2.31A2.208,2.208,0,0,0,68.22-.7a2.208,2.208,0,0,0,1.83-.855A3.628,3.628,0,0,0,70.725-3.87Zm3.15-3.615q.435-.12,1.17-.27a9.174,9.174,0,0,1,1.8-.15,3.747,3.747,0,0,1,1.478.255,2.27,2.27,0,0,1,.945.727,2.968,2.968,0,0,1,.5,1.132,6.571,6.571,0,0,1,.15,1.455V0h-.975V-4.02a7.344,7.344,0,0,0-.113-1.395,2.326,2.326,0,0,0-.375-.93,1.458,1.458,0,0,0-.69-.517,3.134,3.134,0,0,0-1.073-.157,8.2,8.2,0,0,0-1.192.075,3.654,3.654,0,0,0-.653.135V0h-.975ZM83.79-.645a.84.84,0,0,1-.217.585.778.778,0,0,1-.607.24.778.778,0,0,1-.607-.24.84.84,0,0,1-.218-.585.84.84,0,0,1,.218-.585.778.778,0,0,1,.607-.24.778.778,0,0,1,.607.24A.84.84,0,0,1,83.79-.645ZM87.075,0H86.1V-7.755h.975ZM87.3-10.095a.725.725,0,0,1-.21.547.708.708,0,0,1-.51.2.708.708,0,0,1-.51-.2.725.725,0,0,1-.21-.547.725.725,0,0,1,.21-.548.708.708,0,0,1,.51-.2.708.708,0,0,1,.51.2A.725.725,0,0,1,87.3-10.095ZM96.27-3.87A5.014,5.014,0,0,1,96.008-2.2,3.713,3.713,0,0,1,95.273-.93a3.347,3.347,0,0,1-1.118.818A3.41,3.41,0,0,1,92.73.18a3.41,3.41,0,0,1-1.425-.293A3.347,3.347,0,0,1,90.188-.93,3.713,3.713,0,0,1,89.453-2.2,5.014,5.014,0,0,1,89.19-3.87a5.014,5.014,0,0,1,.263-1.665,3.8,3.8,0,0,1,.735-1.282,3.3,3.3,0,0,1,1.118-.825,3.41,3.41,0,0,1,1.425-.292,3.41,3.41,0,0,1,1.425.292,3.3,3.3,0,0,1,1.118.825,3.8,3.8,0,0,1,.735,1.282A5.014,5.014,0,0,1,96.27-3.87Zm-1.035,0a3.661,3.661,0,0,0-.675-2.318,2.2,2.2,0,0,0-1.83-.863,2.2,2.2,0,0,0-1.83.863,3.661,3.661,0,0,0-.675,2.318A3.628,3.628,0,0,0,90.9-1.56,2.208,2.208,0,0,0,92.73-.7a2.208,2.208,0,0,0,1.83-.855A3.628,3.628,0,0,0,95.235-3.87Z" transform="translate(1061 3259.807)" fill="#1c1c1c"/>
  </g>
</svg>
