<svg xmlns="http://www.w3.org/2000/svg" width="185" height="48.026" viewBox="0 0 185 48.026">
  <g id="Group_8" data-name="Group 8" transform="translate(-13 -6)">
    <g id="Group_58" transform="translate(-113.714 -196.775)">
      <g id="Ellipse_2" transform="translate(149.864 214.028) rotate(39)">
        <ellipse id="Ellipse_20" data-name="Ellipse 20" cx="12.764" cy="13.182" rx="12.764" ry="13.182" transform="translate(26.379 0.002) rotate(90)" fill="none"/>
        <path id="Path_13" data-name="Path 13" d="M21.637,22.6a13.34,13.34,0,0,1-8.455,2.958A12.992,12.992,0,0,1,0,12.8,12.556,12.556,0,0,1,3.858,3.762,13.263,13.263,0,0,1,13.182,0h0a13.26,13.26,0,0,1,9.324,3.729,12.43,12.43,0,0,1,3.858,9.034A12.556,12.556,0,0,1,22.505,21.8C22.216,22.087,21.926,22.344,21.637,22.6ZM4.951,3.215a9.358,9.358,0,0,0-.868.772A12.194,12.194,0,0,0,.321,12.764a12.669,12.669,0,0,0,12.86,12.442,13.028,13.028,0,0,0,9.1-3.633,12.086,12.086,0,0,0,3.762-8.809A12.266,12.266,0,0,0,22.28,3.954a12.972,12.972,0,0,0-9.1-3.633h0A13.033,13.033,0,0,0,4.951,3.215Z" transform="translate(0 0)" fill="#272727"/>
      </g>
      <g id="Ellipse_5" transform="translate(149.731 207.786) rotate(39)">
        <circle id="Ellipse_21" data-name="Ellipse 21" cx="12.86" cy="12.86" r="12.86" fill="none"/>
        <path id="Path_14" data-name="Path 14" d="M20.93,22.859a12.629,12.629,0,0,1-8.07,2.861A12.86,12.86,0,0,1,12.86,0h0a12.867,12.867,0,0,1,9.1,21.958C21.637,22.28,21.283,22.569,20.93,22.859ZM5.4,3.6A11.915,11.915,0,1,0,12.86.965h0A11.837,11.837,0,0,0,5.4,3.6Z" transform="translate(0 0)" fill="#272727"/>
      </g>
      <g id="Ellipse_6" transform="translate(145.852 202.775) rotate(39)">
        <circle id="Ellipse_22" data-name="Ellipse 22" cx="13.021" cy="13.021" r="13.021" fill="none"/>
        <path id="Path_15" data-name="Path 15" d="M21.187,23.148a13.028,13.028,0,0,1-8.166,2.893,12.835,12.835,0,0,1-9.195-3.826A13,13,0,0,1,13.021,0h0a12.835,12.835,0,0,1,9.195,3.826,12.977,12.977,0,0,1-1.029,19.322Zm-15.336-19a11.453,11.453,0,0,0-4.244,8.873,11.413,11.413,0,1,0,22.827,0A11.416,11.416,0,0,0,13.021,1.608h0A11.457,11.457,0,0,0,5.851,4.147Z" transform="translate(0 0)" fill="#272727"/>
      </g>
      <g id="Ellipse_7" transform="translate(143.316 214.174) rotate(39)">
        <circle id="Ellipse_23" data-name="Ellipse 23" cx="13.021" cy="13.021" r="13.021" fill="none"/>
        <path id="Path_16" data-name="Path 16" d="M21.187,23.148a13.028,13.028,0,0,1-8.166,2.893,12.835,12.835,0,0,1-9.195-3.826A13.024,13.024,0,0,1,0,13.021,12.835,12.835,0,0,1,3.826,3.826,12.835,12.835,0,0,1,13.021,0a13.011,13.011,0,0,1,8.166,23.148ZM5.24,3.376q-.53.434-.965.868A12.33,12.33,0,0,0,.643,13.021,12.4,12.4,0,0,0,13.021,25.4,12.378,12.378,0,1,0,5.24,3.376Z" transform="translate(0 0)" fill="#272727"/>
      </g>
      <g id="Ellipse_8" transform="translate(142.901 208.046) rotate(39)">
        <circle id="Ellipse_24" data-name="Ellipse 24" cx="12.86" cy="12.86" r="12.86" fill="none"/>
        <path id="Path_17" data-name="Path 17" d="M20.93,22.859a12.666,12.666,0,0,1-8.07,2.861,12.86,12.86,0,1,1,9.1-21.958,12.685,12.685,0,0,1,3.762,9.1A12.819,12.819,0,0,1,20.93,22.859Zm-15.336-19c-.322.257-.611.547-.932.836A11.4,11.4,0,0,0,1.286,12.86,11.594,11.594,0,1,0,12.86,1.286h0A11.46,11.46,0,0,0,5.594,3.858Z" transform="translate(0 0)" fill="#272727"/>
      </g>
    </g>
    <g id="Group_5" data-name="Group 5" transform="translate(-65 -376)">
      <path id="Path_50" data-name="Path 50" d="M1.38-14.28V0H4.52V-5.9H10.5V-8.34H4.52v-3.3h6.9v-2.64Zm11.86,0V0h10.1V-2.64H16.38V-14.28Zm14.38,7.2a7.814,7.814,0,0,1,.21-1.82,4.82,4.82,0,0,1,.67-1.57,3.4,3.4,0,0,1,1.2-1.1,3.666,3.666,0,0,1,1.8-.41,3.666,3.666,0,0,1,1.8.41,3.4,3.4,0,0,1,1.2,1.1,4.82,4.82,0,0,1,.67,1.57,7.814,7.814,0,0,1,.21,1.82,7.269,7.269,0,0,1-.21,1.75A4.729,4.729,0,0,1,34.5-3.8a3.434,3.434,0,0,1-1.2,1.09,3.666,3.666,0,0,1-1.8.41,3.666,3.666,0,0,1-1.8-.41A3.434,3.434,0,0,1,28.5-3.8a4.729,4.729,0,0,1-.67-1.53A7.269,7.269,0,0,1,27.62-7.08Zm-3.14,0a8.625,8.625,0,0,0,.48,2.91,6.95,6.95,0,0,0,1.38,2.35A6.321,6.321,0,0,0,28.55-.25,7.322,7.322,0,0,0,31.5.32a7.3,7.3,0,0,0,2.96-.57,6.343,6.343,0,0,0,2.2-1.57,6.95,6.95,0,0,0,1.38-2.35,8.625,8.625,0,0,0,.48-2.91,8.923,8.923,0,0,0-.48-2.97,7.134,7.134,0,0,0-1.38-2.39,6.332,6.332,0,0,0-2.2-1.6,7.194,7.194,0,0,0-2.96-.58,7.213,7.213,0,0,0-2.95.58,6.31,6.31,0,0,0-2.21,1.6,7.134,7.134,0,0,0-1.38,2.39A8.923,8.923,0,0,0,24.48-7.08ZM54.26,0,58.1-14.28H55.02L52.68-4.44h-.04L50.2-14.28H47.26L44.78-4.56h-.04l-2.26-9.72H39.34L43.12,0H46.3l2.38-9.72h.04L51.14,0Z" transform="translate(125 414)" fill="#272727"/>
      <path id="Path_49" data-name="Path 49" d="M.72-7.14a9.146,9.146,0,0,1,.46-2.93,7.03,7.03,0,0,1,1.33-2.38,6.16,6.16,0,0,1,2.14-1.59,6.833,6.833,0,0,1,2.87-.58,6.465,6.465,0,0,1,2.18.33,5.569,5.569,0,0,1,1.55.82,4.858,4.858,0,0,1,1.03,1.07,5.921,5.921,0,0,1,.61,1.09,5.352,5.352,0,0,1,.29.88q.08.37.08.41h-.88a4.265,4.265,0,0,0-.58-1.61,4.435,4.435,0,0,0-1.1-1.21,4.889,4.889,0,0,0-1.47-.76,5.561,5.561,0,0,0-1.71-.26,5.6,5.6,0,0,0-2.5.54,5.615,5.615,0,0,0-1.86,1.45A6.389,6.389,0,0,0,2-9.74a8.294,8.294,0,0,0-.4,2.6A8.294,8.294,0,0,0,2-4.54,6.389,6.389,0,0,0,3.16-2.41,5.615,5.615,0,0,0,5.02-.96a5.6,5.6,0,0,0,2.5.54A4.507,4.507,0,0,0,9.47-.85a5.338,5.338,0,0,0,1.59-1.14,5.636,5.636,0,0,0,1.09-1.64,5.577,5.577,0,0,0,.47-1.93h.88a7.015,7.015,0,0,1-.63,2.36,6.606,6.606,0,0,1-1.3,1.87A5.708,5.708,0,0,1,9.74-.1,5.638,5.638,0,0,1,7.52.34,6.833,6.833,0,0,1,4.65-.24,6.16,6.16,0,0,1,2.51-1.83,7.03,7.03,0,0,1,1.18-4.21,9.146,9.146,0,0,1,.72-7.14Zm14.62-7.14h9.6v.76H16.22V-7.8h8.2v.76h-8.2V-.76h8.82V0h-9.7Zm11.2,0h6.08a7.114,7.114,0,0,1,1.33.14,3.59,3.59,0,0,1,1.36.57,3.331,3.331,0,0,1,1.05,1.22,4.408,4.408,0,0,1,.42,2.07,3.657,3.657,0,0,1-1.16,2.9A4.873,4.873,0,0,1,32.3-6.36H27.42V0h-.88Zm.88,7.16h5.02a4.1,4.1,0,0,0,1.63-.29,2.932,2.932,0,0,0,1.07-.75,2.89,2.89,0,0,0,.58-1.02,3.642,3.642,0,0,0,.18-1.12,4.552,4.552,0,0,0-.12-.95,2.907,2.907,0,0,0-.48-1.06,2.873,2.873,0,0,0-1.01-.86,3.655,3.655,0,0,0-1.73-.35H27.42Zm9.4-6.4v-.76H47.76v.76H42.72V0h-.88V-13.52Zm11.92-.76h.88V0h-.88ZM65.08-7.14a9.146,9.146,0,0,1-.46,2.93,7.03,7.03,0,0,1-1.33,2.38A6.184,6.184,0,0,1,61.16-.24,6.765,6.765,0,0,1,58.3.34a6.833,6.833,0,0,1-2.87-.58,6.16,6.16,0,0,1-2.14-1.59,7.03,7.03,0,0,1-1.33-2.38,9.146,9.146,0,0,1-.46-2.93,9.146,9.146,0,0,1,.46-2.93,7.03,7.03,0,0,1,1.33-2.38,6.16,6.16,0,0,1,2.14-1.59,6.833,6.833,0,0,1,2.87-.58,6.765,6.765,0,0,1,2.86.58,6.184,6.184,0,0,1,2.13,1.59,7.03,7.03,0,0,1,1.33,2.38A9.146,9.146,0,0,1,65.08-7.14Zm-12.7,0a8.294,8.294,0,0,0,.4,2.6,6.389,6.389,0,0,0,1.16,2.13A5.615,5.615,0,0,0,55.8-.96a5.6,5.6,0,0,0,2.5.54,5.536,5.536,0,0,0,2.49-.54,5.645,5.645,0,0,0,1.85-1.45A6.389,6.389,0,0,0,63.8-4.54a8.294,8.294,0,0,0,.4-2.6,8.294,8.294,0,0,0-.4-2.6,6.389,6.389,0,0,0-1.16-2.13,5.645,5.645,0,0,0-1.85-1.45,5.536,5.536,0,0,0-2.49-.54,5.6,5.6,0,0,0-2.5.54,5.615,5.615,0,0,0-1.86,1.45,6.389,6.389,0,0,0-1.16,2.13A8.294,8.294,0,0,0,52.38-7.14Zm14.58-7.14h1.1l9.02,13.1h.04v-13.1H78V0H76.96L67.88-13.2h-.04V0h-.88Z" transform="translate(185 414)" fill="#272727"/>
    </g>
  </g>
</svg>
